<svg width="18" height="19" viewBox="0 0 18 19" fill="none" xmlns="http://www.w3.org/2000/svg">
<path stroke-width="1.2" d="M16.6585 7.70055L9.6585 1.57555C9.28148 1.24565 8.71852 1.24565 8.3415 1.57555L1.3415 7.70055C1.12448 7.89044 1 8.16476 1 8.45312V16.9994C1 17.5516 1.44772 17.9994 2 17.9994H6C6.55228 17.9994 7 17.5516 7 16.9994V12.9994C7 12.4471 7.44772 11.9994 8 11.9994H10C10.5523 11.9994 11 12.4471 11 12.9994V16.9994C11 17.5516 11.4477 17.9994 12 17.9994H16C16.5523 17.9994 17 17.5516 17 16.9994V8.45313C17 8.16476 16.8755 7.89044 16.6585 7.70055Z" stroke="white" stroke-linecap="round" stroke-linejoin="round"/>
</svg>
